<svg width="152" height="42" viewBox="0 0 152 42" fill="none" xmlns="http://www.w3.org/2000/svg">
<path d="M11.4844 19.2734C11.5332 19.0391 11.5674 18.8047 11.5869 18.5703C11.6064 18.3262 11.6162 18.082 11.6162 17.8379C11.6162 17.6133 11.6064 17.3936 11.5869 17.1787C11.5674 16.9639 11.5332 16.7441 11.4844 16.5195C11.0645 16.4414 10.6396 16.3877 10.21 16.3584C9.78027 16.3291 9.33594 16.3145 8.87695 16.3145C8.42773 16.3145 7.97363 16.3291 7.51465 16.3584C7.05566 16.3877 6.5918 16.4414 6.12305 16.5195C6.07422 17.0469 6.03516 17.5645 6.00586 18.0723C5.98633 18.5801 5.97656 19.0928 5.97656 19.6104C5.97656 20.8018 6.03516 21.9834 6.15234 23.1553C6.2793 24.3174 6.4502 25.4844 6.66504 26.6562C7.10449 26.7051 7.52441 26.7393 7.9248 26.7588C8.33496 26.7686 8.75488 26.7734 9.18457 26.7734C9.60449 26.7734 10.0195 26.7686 10.4297 26.7588C10.8398 26.7393 11.2646 26.7051 11.7041 26.6562C11.7236 26.4512 11.7383 26.251 11.748 26.0557C11.7578 25.8604 11.7627 25.6699 11.7627 25.4844C11.7627 25.3086 11.7578 25.1328 11.748 24.957C11.7383 24.7812 11.7236 24.6104 11.7041 24.4443L17.2266 24.5615C16.9531 25.4893 16.5576 26.2852 16.04 26.9492C15.5322 27.6133 14.9268 28.1602 14.2236 28.5898C13.5303 29.0098 12.7539 29.3174 11.8945 29.5127C11.0352 29.708 10.1318 29.8057 9.18457 29.8057C8.02246 29.8057 6.92871 29.6494 5.90332 29.3369C4.8877 29.0244 3.99902 28.5215 3.2373 27.8281C2.48535 27.125 1.88965 26.2119 1.4502 25.0889C1.02051 23.9658 0.805664 22.5889 0.805664 20.958C0.805664 19.6396 1.03516 18.5068 1.49414 17.5596C1.95312 16.6123 2.56348 15.8311 3.3252 15.2158C4.09668 14.6006 4.98535 14.1514 5.99121 13.8682C7.00684 13.5752 8.07129 13.4287 9.18457 13.4287C10.1709 13.4287 11.1084 13.5459 11.9971 13.7803C12.8857 14.0049 13.6865 14.3564 14.3994 14.835C15.1221 15.3037 15.7373 15.9092 16.2451 16.6514C16.7529 17.3838 17.1191 18.2578 17.3438 19.2734H11.4844ZM29.9561 25.9678C30.0146 25.1377 30.0537 24.332 30.0732 23.5508C30.1025 22.7695 30.1172 21.998 30.1172 21.2363C30.1172 20.4453 30.1025 19.6689 30.0732 18.9072C30.0537 18.1357 30.0146 17.3398 29.9561 16.5195C29.624 16.4707 29.292 16.4414 28.96 16.4316C28.6377 16.4121 28.3105 16.4023 27.9785 16.4023C26.6113 16.4023 25.293 16.5537 24.0234 16.8564C23.9941 17.3838 23.9648 17.9062 23.9355 18.4238C23.916 18.9414 23.9062 19.459 23.9062 19.9766C23.9062 21.0117 23.9453 22.0469 24.0234 23.082C24.1113 24.1074 24.2383 25.1816 24.4043 26.3047C24.6289 26.3242 24.8535 26.334 25.0781 26.334C25.3125 26.334 25.5518 26.334 25.7959 26.334C26.4697 26.334 27.1533 26.3047 27.8467 26.2461C28.5498 26.1875 29.2529 26.0947 29.9561 25.9678ZM35.3906 21.3535C35.3906 22.5156 35.1611 23.6094 34.7021 24.6348C34.2529 25.6504 33.6377 26.5391 32.8564 27.3008C32.0752 28.0625 31.1572 28.6631 30.1025 29.1025C29.0576 29.5518 27.9395 29.7764 26.748 29.7764C25.5664 29.7764 24.4775 29.5518 23.4814 29.1025C22.4951 28.6631 21.6406 28.0625 20.918 27.3008C20.2051 26.5391 19.6484 25.6504 19.248 24.6348C18.8477 23.6094 18.6475 22.5156 18.6475 21.3535C18.6475 19.918 18.8477 18.6729 19.248 17.6182C19.6484 16.5635 20.2051 15.6895 20.918 14.9961C21.6406 14.3027 22.4951 13.79 23.4814 13.458C24.4775 13.1162 25.5664 12.9453 26.748 12.9453C27.9395 12.9453 29.0576 13.1357 30.1025 13.5166C31.1572 13.8975 32.0752 14.4492 32.8564 15.1719C33.6377 15.8945 34.2529 16.7783 34.7021 17.8232C35.1611 18.8584 35.3906 20.0352 35.3906 21.3535ZM53.4668 21.3535C53.4668 22.6523 53.3984 23.9756 53.2617 25.3232C53.125 26.6709 52.8906 28.0186 52.5586 29.3662H47.4609C47.5879 27.9111 47.6855 26.4756 47.7539 25.0596C47.8223 23.6338 47.8564 22.1982 47.8564 20.7529C47.8564 20.2646 47.8564 19.7812 47.8564 19.3027C47.8564 18.8145 47.8467 18.3262 47.8271 17.8379C47.3877 17.7891 46.9531 17.7598 46.5234 17.75C46.0938 17.7305 45.6592 17.7207 45.2197 17.7207C44.3896 17.7207 43.5352 17.75 42.6562 17.8086C42.627 18.6094 42.6025 19.3516 42.583 20.0352C42.5732 20.7188 42.5684 21.3975 42.5684 22.0713C42.5684 22.5693 42.5732 23.0771 42.583 23.5947C42.5928 24.1025 42.6074 24.6494 42.627 25.2354C42.6562 25.8213 42.6904 26.4561 42.7295 27.1396C42.7686 27.8135 42.8174 28.5557 42.876 29.3662H37.9541C37.9541 28.1943 37.9492 27.1592 37.9395 26.2607C37.9297 25.3623 37.915 24.5371 37.8955 23.7852C37.876 23.0234 37.8467 22.3008 37.8076 21.6172C37.7783 20.9238 37.7393 20.2012 37.6904 19.4492C37.6416 18.6875 37.5879 17.8623 37.5293 16.9736C37.4707 16.0752 37.4023 15.0449 37.3242 13.8828L42.876 13.5459L42.7588 15.626C43.3154 15.2354 43.8867 14.9326 44.4727 14.7178C45.0586 14.5029 45.5957 14.3418 46.084 14.2344C46.6504 14.1172 47.2021 14.0488 47.7393 14.0293C48.4521 14.0293 49.0869 14.127 49.6436 14.3223C50.21 14.5176 50.7031 14.791 51.123 15.1426C51.5527 15.4844 51.9141 15.8896 52.207 16.3584C52.5 16.8271 52.7393 17.335 52.9248 17.8818C53.1201 18.4189 53.2568 18.9854 53.335 19.5811C53.4229 20.1768 53.4668 20.7676 53.4668 21.3535ZM71.9824 21.3535C71.9824 22.6523 71.9141 23.9756 71.7773 25.3232C71.6406 26.6709 71.4062 28.0186 71.0742 29.3662H65.9766C66.1035 27.9111 66.2012 26.4756 66.2695 25.0596C66.3379 23.6338 66.3721 22.1982 66.3721 20.7529C66.3721 20.2646 66.3721 19.7812 66.3721 19.3027C66.3721 18.8145 66.3623 18.3262 66.3428 17.8379C65.9033 17.7891 65.4688 17.7598 65.0391 17.75C64.6094 17.7305 64.1748 17.7207 63.7354 17.7207C62.9053 17.7207 62.0508 17.75 61.1719 17.8086C61.1426 18.6094 61.1182 19.3516 61.0986 20.0352C61.0889 20.7188 61.084 21.3975 61.084 22.0713C61.084 22.5693 61.0889 23.0771 61.0986 23.5947C61.1084 24.1025 61.123 24.6494 61.1426 25.2354C61.1719 25.8213 61.2061 26.4561 61.2451 27.1396C61.2842 27.8135 61.333 28.5557 61.3916 29.3662H56.4697C56.4697 28.1943 56.4648 27.1592 56.4551 26.2607C56.4453 25.3623 56.4307 24.5371 56.4111 23.7852C56.3916 23.0234 56.3623 22.3008 56.3232 21.6172C56.2939 20.9238 56.2549 20.2012 56.2061 19.4492C56.1572 18.6875 56.1035 17.8623 56.0449 16.9736C55.9863 16.0752 55.918 15.0449 55.8398 13.8828L61.3916 13.5459L61.2744 15.626C61.8311 15.2354 62.4023 14.9326 62.9883 14.7178C63.5742 14.5029 64.1113 14.3418 64.5996 14.2344C65.166 14.1172 65.7178 14.0488 66.2549 14.0293C66.9678 14.0293 67.6025 14.127 68.1592 14.3223C68.7256 14.5176 69.2188 14.791 69.6387 15.1426C70.0684 15.4844 70.4297 15.8896 70.7227 16.3584C71.0156 16.8271 71.2549 17.335 71.4404 17.8818C71.6357 18.4189 71.7725 18.9854 71.8506 19.5811C71.9385 20.1768 71.9824 20.7676 71.9824 21.3535ZM90.7324 22.1299L79.2773 23.0527C79.3262 23.6582 79.3945 24.2588 79.4824 24.8545C79.5703 25.4502 79.6826 26.0508 79.8193 26.6562C80.6787 26.7148 81.5088 26.7441 82.3096 26.7441C82.749 26.7441 83.1738 26.7393 83.584 26.7295C83.9941 26.71 84.4189 26.6855 84.8584 26.6562C84.8779 26.4609 84.8926 26.2656 84.9023 26.0703C84.9121 25.875 84.917 25.6797 84.917 25.4844C84.917 25.3086 84.9121 25.1377 84.9023 24.9717C84.9023 24.7959 84.8877 24.6201 84.8584 24.4443L90.3809 24.5615C90.1074 25.4893 89.7119 26.2852 89.1943 26.9492C88.6865 27.6133 88.0811 28.1602 87.3779 28.5898C86.6846 29.0098 85.9082 29.3174 85.0488 29.5127C84.1895 29.708 83.2861 29.8057 82.3389 29.8057C81.1768 29.8057 80.083 29.6494 79.0576 29.3369C78.042 29.0244 77.1533 28.5215 76.3916 27.8281C75.6396 27.125 75.0439 26.2119 74.6045 25.0889C74.1748 23.9658 73.96 22.5889 73.96 20.958C73.96 19.6396 74.1895 18.5068 74.6484 17.5596C75.1074 16.6123 75.7178 15.8311 76.4795 15.2158C77.251 14.6006 78.1396 14.1514 79.1455 13.8682C80.1611 13.5752 81.2256 13.4287 82.3389 13.4287C83.501 13.4287 84.5898 13.585 85.6055 13.8975C86.6309 14.21 87.5195 14.6982 88.2715 15.3623C89.0332 16.0264 89.6338 16.876 90.0732 17.9111C90.5127 18.9463 90.7324 20.1816 90.7324 21.6172V22.1299ZM79.1309 19.9766H85.0049C85.0049 18.7656 84.8828 17.6133 84.6387 16.5195C83.7988 16.3438 82.9199 16.2559 82.002 16.2559C81.1035 16.2559 80.1953 16.3438 79.2773 16.5195C79.2188 17.0664 79.1797 17.623 79.1602 18.1895C79.1406 18.7461 79.1309 19.3418 79.1309 19.9766ZM102.773 19.2734C102.822 19.0391 102.856 18.8047 102.876 18.5703C102.896 18.3262 102.905 18.082 102.905 17.8379C102.905 17.6133 102.896 17.3936 102.876 17.1787C102.856 16.9639 102.822 16.7441 102.773 16.5195C102.354 16.4414 101.929 16.3877 101.499 16.3584C101.069 16.3291 100.625 16.3145 100.166 16.3145C99.7168 16.3145 99.2627 16.3291 98.8037 16.3584C98.3447 16.3877 97.8809 16.4414 97.4121 16.5195C97.3633 17.0469 97.3242 17.5645 97.2949 18.0723C97.2754 18.5801 97.2656 19.0928 97.2656 19.6104C97.2656 20.8018 97.3242 21.9834 97.4414 23.1553C97.5684 24.3174 97.7393 25.4844 97.9541 26.6562C98.3936 26.7051 98.8135 26.7393 99.2139 26.7588C99.624 26.7686 100.044 26.7734 100.474 26.7734C100.894 26.7734 101.309 26.7686 101.719 26.7588C102.129 26.7393 102.554 26.7051 102.993 26.6562C103.013 26.4512 103.027 26.251 103.037 26.0557C103.047 25.8604 103.052 25.6699 103.052 25.4844C103.052 25.3086 103.047 25.1328 103.037 24.957C103.027 24.7812 103.013 24.6104 102.993 24.4443L108.516 24.5615C108.242 25.4893 107.847 26.2852 107.329 26.9492C106.821 27.6133 106.216 28.1602 105.513 28.5898C104.819 29.0098 104.043 29.3174 103.184 29.5127C102.324 29.708 101.421 29.8057 100.474 29.8057C99.3115 29.8057 98.2178 29.6494 97.1924 29.3369C96.1768 29.0244 95.2881 28.5215 94.5264 27.8281C93.7744 27.125 93.1787 26.2119 92.7393 25.0889C92.3096 23.9658 92.0947 22.5889 92.0947 20.958C92.0947 19.6396 92.3242 18.5068 92.7832 17.5596C93.2422 16.6123 93.8525 15.8311 94.6143 15.2158C95.3857 14.6006 96.2744 14.1514 97.2803 13.8682C98.2959 13.5752 99.3604 13.4287 100.474 13.4287C101.46 13.4287 102.397 13.5459 103.286 13.7803C104.175 14.0049 104.976 14.3564 105.688 14.835C106.411 15.3037 107.026 15.9092 107.534 16.6514C108.042 17.3838 108.408 18.2578 108.633 19.2734H102.773ZM124.453 17.8379C123.506 17.7891 122.554 17.7451 121.597 17.7061C120.649 17.667 119.702 17.6328 118.755 17.6035C118.638 19.5469 118.535 21.4854 118.447 23.4189C118.359 25.3525 118.291 27.3008 118.242 29.2637L113.965 29.6885C114.023 26.1143 114.053 22.5742 114.053 19.0684V17.5156H112.998C112.412 17.5156 111.826 17.5205 111.24 17.5303C110.654 17.54 110.068 17.5449 109.482 17.5449V13.8242C109.736 13.8242 109.99 13.8291 110.244 13.8389C110.508 13.8486 110.776 13.8535 111.05 13.8535H114.023C114.023 12.9453 114.019 12.0518 114.009 11.1729C113.999 10.2842 113.984 9.39551 113.965 8.50684H119.517C119.419 9.38574 119.331 10.2598 119.253 11.1289C119.185 11.9883 119.121 12.8477 119.062 13.707C119.971 13.668 120.864 13.6289 121.743 13.5898C122.632 13.541 123.535 13.4873 124.453 13.4287V17.8379ZM131.587 13.707C131.372 15.8848 131.226 18.0332 131.147 20.1523C131.079 22.2715 131.045 24.3906 131.045 26.5098C131.045 26.8809 131.045 27.2568 131.045 27.6377C131.045 28.0088 131.055 28.3848 131.074 28.7656H126.548C126.548 28.1602 126.553 27.5596 126.562 26.9639C126.572 26.3682 126.577 25.7773 126.577 25.1914C126.577 23.248 126.528 21.3242 126.431 19.4199C126.343 17.5156 126.201 15.6113 126.006 13.707H131.587ZM131.587 8.96094C131.587 9.30273 131.504 9.625 131.338 9.92773C131.172 10.2207 130.942 10.4795 130.649 10.7041C130.356 10.9189 130.015 11.0947 129.624 11.2314C129.233 11.3584 128.818 11.4219 128.379 11.4219C127.939 11.4219 127.529 11.3584 127.148 11.2314C126.768 11.0947 126.436 10.9189 126.152 10.7041C125.869 10.4795 125.645 10.2207 125.479 9.92773C125.312 9.625 125.229 9.30273 125.229 8.96094C125.229 8.62891 125.312 8.31641 125.479 8.02344C125.645 7.7207 125.869 7.46191 126.152 7.24707C126.436 7.02246 126.768 6.84668 127.148 6.71973C127.529 6.59277 127.939 6.5293 128.379 6.5293C128.818 6.5293 129.233 6.59277 129.624 6.71973C130.015 6.84668 130.356 7.02246 130.649 7.24707C130.942 7.46191 131.172 7.7207 131.338 8.02344C131.504 8.31641 131.587 8.62891 131.587 8.96094ZM144.888 25.9678C144.946 25.1377 144.985 24.332 145.005 23.5508C145.034 22.7695 145.049 21.998 145.049 21.2363C145.049 20.4453 145.034 19.6689 145.005 18.9072C144.985 18.1357 144.946 17.3398 144.888 16.5195C144.556 16.4707 144.224 16.4414 143.892 16.4316C143.569 16.4121 143.242 16.4023 142.91 16.4023C141.543 16.4023 140.225 16.5537 138.955 16.8564C138.926 17.3838 138.896 17.9062 138.867 18.4238C138.848 18.9414 138.838 19.459 138.838 19.9766C138.838 21.0117 138.877 22.0469 138.955 23.082C139.043 24.1074 139.17 25.1816 139.336 26.3047C139.561 26.3242 139.785 26.334 140.01 26.334C140.244 26.334 140.483 26.334 140.728 26.334C141.401 26.334 142.085 26.3047 142.778 26.2461C143.481 26.1875 144.185 26.0947 144.888 25.9678ZM150.322 21.3535C150.322 22.5156 150.093 23.6094 149.634 24.6348C149.185 25.6504 148.569 26.5391 147.788 27.3008C147.007 28.0625 146.089 28.6631 145.034 29.1025C143.989 29.5518 142.871 29.7764 141.68 29.7764C140.498 29.7764 139.409 29.5518 138.413 29.1025C137.427 28.6631 136.572 28.0625 135.85 27.3008C135.137 26.5391 134.58 25.6504 134.18 24.6348C133.779 23.6094 133.579 22.5156 133.579 21.3535C133.579 19.918 133.779 18.6729 134.18 17.6182C134.58 16.5635 135.137 15.6895 135.85 14.9961C136.572 14.3027 137.427 13.79 138.413 13.458C139.409 13.1162 140.498 12.9453 141.68 12.9453C142.871 12.9453 143.989 13.1357 145.034 13.5166C146.089 13.8975 147.007 14.4492 147.788 15.1719C148.569 15.8945 149.185 16.7783 149.634 17.8232C150.093 18.8584 150.322 20.0352 150.322 21.3535Z" fill="url(#paint0_linear_1_12)"/>
<defs>
<linearGradient id="paint0_linear_1_12" x1="0" y1="21" x2="152" y2="21" gradientUnits="userSpaceOnUse">
<stop offset="0.39" stop-color="#FF6B00"/>
<stop offset="0.755"/>
</linearGradient>
</defs>
</svg>
