<svg width="84" height="74" viewBox="0 0 84 74" fill="none" xmlns="http://www.w3.org/2000/svg">
<g filter="url(#filter0_d_72_29)">
<rect x="4" width="76" height="66" rx="15" fill="#EBD7EB"/>
<path d="M33.6676 28.8285C33.6676 28.276 33.8871 27.7461 34.2778 27.3554C34.6685 26.9647 35.1984 26.7452 35.7509 26.7452H48.2505C48.803 26.7452 49.3329 26.9647 49.7236 27.3554C50.1143 27.7461 50.3338 28.276 50.3338 28.8285C50.3338 29.381 50.1143 29.9109 49.7236 30.3016C49.3329 30.6923 48.803 30.9118 48.2505 30.9118H35.7509C35.1984 30.9118 34.6685 30.6923 34.2778 30.3016C33.8871 29.9109 33.6676 29.381 33.6676 28.8285ZM35.7509 35.0785C35.1984 35.0785 34.6685 35.298 34.2778 35.6887C33.8871 36.0794 33.6676 36.6093 33.6676 37.1618C33.6676 37.7144 33.8871 38.2443 34.2778 38.635C34.6685 39.0257 35.1984 39.2452 35.7509 39.2452H44.084C44.6365 39.2452 45.1664 39.0257 45.5571 38.635C45.9478 38.2443 46.1672 37.7144 46.1672 37.1618C46.1672 36.6093 45.9478 36.0794 45.5571 35.6887C45.1664 35.298 44.6365 35.0785 44.084 35.0785H35.7509ZM17.0014 32.9952C17.0025 27.4912 18.8198 22.1414 22.1715 17.7757C25.5232 13.41 30.2218 10.2724 35.5386 8.84968C40.8553 7.42694 46.493 7.79858 51.577 9.90694C56.661 12.0153 60.9071 15.7425 63.6567 20.5104C66.4063 25.2783 67.5057 30.8204 66.7843 36.2769C66.0629 41.7333 63.561 46.7992 59.6668 50.6887C55.7726 54.5782 50.7037 57.0738 45.2465 57.7884C39.7892 58.503 34.2487 57.3966 29.4844 54.641L19.743 57.891C19.3831 58.0111 18.9972 58.0307 18.627 57.9476C18.2568 57.8645 17.9163 57.6819 17.6423 57.4195C17.3683 57.157 17.1711 56.8247 17.0721 56.4584C16.9732 56.0921 16.9761 55.7057 17.0806 55.341L20.0472 44.9618C18.0473 41.2904 17.0001 37.176 17.0014 32.9952ZM42.0007 12.1618C38.3224 12.1616 34.7096 13.1353 31.5296 14.9839C28.3495 16.8326 25.7156 19.4903 23.8956 22.6868C22.0756 25.8834 21.1343 29.5049 21.1675 33.1831C21.2007 36.8614 22.2072 40.4653 24.0846 43.6285C24.229 43.8728 24.322 44.1441 24.3578 44.4257C24.3936 44.7073 24.3715 44.9932 24.2929 45.266L22.1721 52.6826L29.0802 50.3826C29.3736 50.2847 29.6851 50.2534 29.9922 50.2909C30.2992 50.3283 30.594 50.4337 30.8552 50.5993C33.5854 52.3272 36.6801 53.3963 39.8946 53.7222C43.1092 54.0481 46.3555 53.6218 49.3769 52.477C52.3983 51.3323 55.1121 49.5004 57.3036 47.1262C59.4952 44.752 61.1045 41.9005 62.0043 38.7972C62.9042 35.694 63.0699 32.4239 62.4884 29.2456C61.9068 26.0672 60.594 23.0677 58.6537 20.4841C56.7134 17.9005 54.1987 15.8036 51.3085 14.3593C48.4183 12.9149 45.2317 12.1626 42.0007 12.1618Z" fill="white"/>
</g>
<defs>
<filter id="filter0_d_72_29" x="0" y="0" width="84" height="74" filterUnits="userSpaceOnUse" color-interpolation-filters="sRGB">
<feFlood flood-opacity="0" result="BackgroundImageFix"/>
<feColorMatrix in="SourceAlpha" type="matrix" values="0 0 0 0 0 0 0 0 0 0 0 0 0 0 0 0 0 0 127 0" result="hardAlpha"/>
<feOffset dy="4"/>
<feGaussianBlur stdDeviation="2"/>
<feComposite in2="hardAlpha" operator="out"/>
<feColorMatrix type="matrix" values="0 0 0 0 0 0 0 0 0 0 0 0 0 0 0 0 0 0 0.25 0"/>
<feBlend mode="normal" in2="BackgroundImageFix" result="effect1_dropShadow_72_29"/>
<feBlend mode="normal" in="SourceGraphic" in2="effect1_dropShadow_72_29" result="shape"/>
</filter>
</defs>
</svg>
