<svg width="50" height="50" viewBox="0 0 50 50" fill="none" xmlns="http://www.w3.org/2000/svg">
<path fill-rule="evenodd" clip-rule="evenodd" d="M34.8837 3.65854V7.78049L39.5349 11.6829V3.65854H34.8837ZM43.0233 14.6098V3.04878C43.0233 1.36585 41.7209 0 40.1163 0H34.3023C32.6977 0 31.3953 1.36585 31.3953 3.04878V4.85366L30.4488 4.05854C28.9024 2.76064 26.9807 2.05352 25 2.05352C23.0193 2.05352 21.0976 2.76064 19.5512 4.05854L0.655814 19.9122C0.294379 20.2153 0.0625381 20.6565 0.0112927 21.1388C-0.0399527 21.6212 0.0935955 22.1051 0.382558 22.4841C0.671521 22.8632 1.09223 23.1064 1.55213 23.1601C2.01203 23.2139 2.47345 23.0738 2.83488 22.7707L4.65116 21.2439V46.3415H1.74419C1.2816 46.3415 0.837959 46.5342 0.51086 46.8772C0.183762 47.2203 0 47.6856 0 48.1707C0 48.6559 0.183762 49.1212 0.51086 49.4642C0.837959 49.8073 1.2816 50 1.74419 50H48.2558C48.7184 50 49.162 49.8073 49.4891 49.4642C49.8162 49.1212 50 48.6559 50 48.1707C50 47.6856 49.8162 47.2203 49.4891 46.8772C49.162 46.5342 48.7184 46.3415 48.2558 46.3415H45.3488V21.2439L47.1674 22.7707C47.5295 23.0666 47.9881 23.2009 48.4439 23.1445C48.8998 23.0881 49.316 22.8455 49.6024 22.4694C49.8889 22.0933 50.0224 21.6139 49.974 21.1352C49.9257 20.6565 49.6994 20.2171 49.3442 19.9122L43.0233 14.6098ZM41.8605 18.3171L28.2698 6.91463C27.3418 6.13565 26.1886 5.71123 25 5.71123C23.8114 5.71123 22.6582 6.13565 21.7302 6.91463L8.13953 18.3171V46.3415H16.2791V35.8537C16.2791 34.2341 16.2791 32.8366 16.4233 31.7171C16.5767 30.5171 16.9233 29.3683 17.8116 28.4366C18.7 27.5049 19.7977 27.1415 20.9395 26.9805C22.007 26.8293 23.3395 26.8293 24.886 26.8293H25.114C26.6605 26.8293 27.993 26.8293 29.0605 26.9805C30.2047 27.1415 31.3 27.5049 32.1884 28.4366C33.0767 29.3683 33.4233 30.5171 33.5767 31.7171C33.7209 32.8366 33.7209 34.2341 33.7209 35.8561V46.3415H41.8605V18.3171ZM30.2326 46.3415V35.9756C30.2326 34.2 30.2279 33.0488 30.1209 32.2049C30.0186 31.4122 29.8558 31.1634 29.7209 31.0244C29.5884 30.8854 29.3512 30.7122 28.5953 30.6049C27.7884 30.4927 26.693 30.4878 25 30.4878C23.307 30.4878 22.2093 30.4927 21.4047 30.6049C20.6488 30.7122 20.4116 30.8854 20.2791 31.0244C20.1465 31.1634 19.9814 31.4122 19.8791 32.2049C19.7721 33.0512 19.7674 34.2 19.7674 35.9756V46.3415H30.2326ZM25 14.6341C24.6182 14.6341 24.2402 14.713 23.8875 14.8662C23.5349 15.0194 23.2144 15.244 22.9445 15.5271C22.6745 15.8102 22.4604 16.1463 22.3143 16.5162C22.1682 16.8861 22.093 17.2826 22.093 17.6829C22.093 18.0833 22.1682 18.4797 22.3143 18.8496C22.4604 19.2195 22.6745 19.5556 22.9445 19.8387C23.2144 20.1218 23.5349 20.3464 23.8875 20.4996C24.2402 20.6528 24.6182 20.7317 25 20.7317C25.771 20.7317 26.5104 20.4105 27.0555 19.8387C27.6007 19.267 27.907 18.4915 27.907 17.6829C27.907 16.8743 27.6007 16.0989 27.0555 15.5271C26.5104 14.9554 25.771 14.6341 25 14.6341ZM18.6047 17.6829C18.6047 15.904 19.2784 14.198 20.4778 12.9401C21.6772 11.6823 23.3038 10.9756 25 10.9756C26.6962 10.9756 28.3228 11.6823 29.5222 12.9401C30.7216 14.198 31.3953 15.904 31.3953 17.6829C31.3953 19.4618 30.7216 21.1679 29.5222 22.4257C28.3228 23.6836 26.6962 24.3902 25 24.3902C23.3038 24.3902 21.6772 23.6836 20.4778 22.4257C19.2784 21.1679 18.6047 19.4618 18.6047 17.6829Z" fill="white"/>
</svg>
