<svg width="51" height="50" viewBox="0 0 51 50" fill="none" xmlns="http://www.w3.org/2000/svg">
<path d="M49.9295 44.6683C48.3116 43.1945 46.8951 41.5049 45.7181 39.6451C44.4333 37.0779 43.6632 34.2743 43.453 31.3989V22.9299C43.4641 18.4135 41.8608 14.0485 38.9442 10.6548C36.0276 7.26122 31.9986 5.07262 27.6141 4.50026V2.2887C27.6141 1.6817 27.3781 1.09956 26.958 0.670345C26.538 0.241131 25.9682 0 25.3742 0C24.7801 0 24.2104 0.241131 23.7903 0.670345C23.3702 1.09956 23.1342 1.6817 23.1342 2.2887V4.53454C18.789 5.14817 14.8087 7.35 11.9304 10.7322C9.05216 14.1144 7.47102 18.4479 7.47987 22.9299V31.3989C7.26972 34.2743 6.49963 37.0779 5.21477 39.6451C4.05853 41.5007 2.66476 43.19 1.07047 44.6683C0.891496 44.8289 0.748056 45.0267 0.649694 45.2484C0.551331 45.4701 0.500302 45.7106 0.5 45.9541V48.2856C0.5 48.7403 0.676773 49.1764 0.991432 49.4979C1.30609 49.8194 1.73286 50 2.17785 50H48.8222C49.2671 50 49.6939 49.8194 50.0086 49.4979C50.3232 49.1764 50.5 48.7403 50.5 48.2856V45.9541C50.4997 45.7106 50.4487 45.4701 50.3503 45.2484C50.2519 45.0267 50.1085 44.8289 49.9295 44.6683ZM3.98993 46.5712C5.55102 45.0303 6.9255 43.3036 8.08389 41.4281C9.70237 38.3276 10.6467 34.9066 10.8523 31.3989V22.9299C10.7858 20.9207 11.1156 18.9184 11.8222 17.0421C12.5288 15.1659 13.5977 13.4541 14.9652 12.0087C16.3327 10.5634 17.9709 9.41397 19.7822 8.62896C21.5935 7.84396 23.5409 7.43941 25.5084 7.43941C27.4759 7.43941 29.4233 7.84396 31.2346 8.62896C33.0459 9.41397 34.6841 10.5634 36.0516 12.0087C37.4191 13.4541 38.488 15.1659 39.1946 17.0421C39.9011 18.9184 40.231 20.9207 40.1644 22.9299V31.3989C40.3701 34.9066 41.3144 38.3276 42.9329 41.4281C44.0913 43.3036 45.4658 45.0303 47.0268 46.5712H3.98993Z" fill="white"/>
</svg>
